<?xml version="1.0" encoding="UTF-8" standalone="no"?>
<svg
   xmlns:dc="http://purl.org/dc/elements/1.1/"
   xmlns:cc="http://creativecommons.org/ns#"
   xmlns:rdf="http://www.w3.org/1999/02/22-rdf-syntax-ns#"
   xmlns:svg="http://www.w3.org/2000/svg"
   xmlns="http://www.w3.org/2000/svg"
   xmlns:sodipodi="http://sodipodi.sourceforge.net/DTD/sodipodi-0.dtd"
   xmlns:inkscape="http://www.inkscape.org/namespaces/inkscape"
   viewBox="0 0 57.377068 57.377068"
   height="57.377068"
   width="57.377068"
   xml:space="preserve"
   id="svg2"
   version="1.1"
   sodipodi:docname="icon_nobg.svg"
   inkscape:version="0.92.4 (fd57863, 2020-04-02)"><sodipodi:namedview
     pagecolor="#ffffff"
     bordercolor="#666666"
     borderopacity="1"
     objecttolerance="10"
     gridtolerance="10"
     guidetolerance="10"
     inkscape:pageopacity="0"
     inkscape:pageshadow="2"
     inkscape:window-width="2560"
     inkscape:window-height="1385"
     id="namedview841"
     showgrid="false"
     inkscape:zoom="11.633721"
     inkscape:cx="58.743158"
     inkscape:cy="36.098655"
     inkscape:window-x="0"
     inkscape:window-y="27"
     inkscape:window-maximized="1"
     inkscape:current-layer="svg2" /><metadata
     id="metadata8"><rdf:RDF><cc:Work
         rdf:about=""><dc:format>image/svg+xml</dc:format><dc:type
           rdf:resource="http://purl.org/dc/dcmitype/StillImage" /><dc:title></dc:title></cc:Work></rdf:RDF></metadata><defs
     id="defs6"><clipPath
       id="clipPath18"
       clipPathUnits="userSpaceOnUse"><path
         id="path16"
         d="M 0,43.033 H 43.033 V 0 H 0 Z" /></clipPath></defs><g
     transform="matrix(1.3333333,0,0,-1.3333333,0,57.377067)"
     id="g10"><g
       id="g12"><g
         clip-path="url(#clipPath18)"
         id="g14"><g
           transform="translate(40.7542,21.1557)"
           id="g20" /><g
           transform="translate(21.9412,2.3114)"
           id="g24" /><g
           transform="translate(33.8018,22.6559)"
           id="g28"><path
             id="path30"
             style="fill:#ffffff;fill-opacity:1;fill-rule:nonzero;stroke:none"
             d="M 0,0 C -0.76,0 -1.382,-0.568 -1.48,-1.301 H -4.749 C -4.799,0.522 -5.531,2.174 -6.7,3.41 l 2.311,2.311 c 0.588,-0.449 1.429,-0.411 1.967,0.127 0.586,0.586 0.586,1.536 0,2.121 -0.586,0.586 -1.536,0.586 -2.122,0 C -5.081,7.432 -5.12,6.591 -4.671,6.003 L -6.982,3.692 c -1.236,1.169 -2.887,1.901 -4.711,1.951 v 3.269 c 0.734,0.098 1.301,0.72 1.301,1.48 0,0.828 -0.672,1.5 -1.5,1.5 -0.828,0 -1.5,-0.672 -1.5,-1.5 0,-0.76 0.567,-1.382 1.301,-1.48 V 5.643 c -1.824,-0.05 -3.475,-0.782 -4.711,-1.951 l -2.311,2.311 c 0.449,0.588 0.411,1.429 -0.127,1.966 -0.586,0.586 -1.536,0.586 -2.122,0 -0.585,-0.585 -0.585,-1.535 0,-2.121 0.538,-0.538 1.379,-0.576 1.967,-0.127 l 2.311,-2.311 c -1.169,-1.236 -1.901,-2.888 -1.951,-4.711 h -3.269 c -0.098,0.733 -0.72,1.301 -1.48,1.301 -0.828,0 -1.5,-0.672 -1.5,-1.5 0,-0.829 0.672,-1.5 1.5,-1.5 0.76,0 1.382,0.567 1.48,1.3 h 3.269 c 0.05,-1.823 0.782,-3.475 1.951,-4.71 l -2.311,-2.311 c -0.588,0.448 -1.429,0.41 -1.967,-0.127 -0.585,-0.586 -0.585,-1.536 0,-2.122 0.586,-0.586 1.536,-0.586 2.122,0 0.537,0.538 0.576,1.378 0.127,1.966 l 2.311,2.312 c 1.236,-1.169 2.887,-1.901 4.711,-1.951 v -3.269 c -0.734,-0.099 -1.301,-0.72 -1.301,-1.48 0,-0.829 0.672,-1.5 1.5,-1.5 0.828,0 1.5,0.671 1.5,1.5 0,0.76 -0.567,1.381 -1.301,1.48 v 3.269 c 1.824,0.05 3.475,0.782 4.711,1.95 l 2.311,-2.311 c -0.449,-0.588 -0.41,-1.428 0.127,-1.966 0.586,-0.586 1.536,-0.586 2.122,0 0.586,0.586 0.586,1.536 0,2.122 -0.538,0.537 -1.379,0.575 -1.967,0.127 L -6.7,-6.41 c 1.169,1.235 1.901,2.887 1.951,4.71 H -1.48 C -1.382,-2.433 -0.76,-3 0,-3 0.828,-3 1.5,-2.329 1.5,-1.5 1.5,-0.672 0.828,0 0,0" /></g></g></g></g></svg>