<?xml version="1.0" encoding="UTF-8" standalone="no"?>
<svg
   xmlns:dc="http://purl.org/dc/elements/1.1/"
   xmlns:cc="http://creativecommons.org/ns#"
   xmlns:rdf="http://www.w3.org/1999/02/22-rdf-syntax-ns#"
   xmlns:svg="http://www.w3.org/2000/svg"
   xmlns="http://www.w3.org/2000/svg"
   xmlns:sodipodi="http://sodipodi.sourceforge.net/DTD/sodipodi-0.dtd"
   xmlns:inkscape="http://www.inkscape.org/namespaces/inkscape"
   viewBox="0 0 43.438667 42.366489"
   height="42.366489"
   width="43.438667"
   xml:space="preserve"
   id="svg2"
   version="1.1"
   sodipodi:docname="github_logo.svg"
   inkscape:version="0.92.4 (fd57863, 2020-04-02)"><sodipodi:namedview
     pagecolor="#ffffff"
     bordercolor="#666666"
     borderopacity="1"
     objecttolerance="10"
     gridtolerance="10"
     guidetolerance="10"
     inkscape:pageopacity="0"
     inkscape:pageshadow="2"
     inkscape:window-width="2560"
     inkscape:window-height="1385"
     id="namedview1253"
     showgrid="false"
     inkscape:zoom="18.508221"
     inkscape:cx="26.808915"
     inkscape:cy="22.881946"
     inkscape:window-x="0"
     inkscape:window-y="27"
     inkscape:window-maximized="1"
     inkscape:current-layer="svg2" /><metadata
     id="metadata8"><rdf:RDF><cc:Work
         rdf:about=""><dc:format>image/svg+xml</dc:format><dc:type
           rdf:resource="http://purl.org/dc/dcmitype/StillImage" /><dc:title></dc:title></cc:Work></rdf:RDF></metadata><defs
     id="defs6"><clipPath
       id="clipPath20"
       clipPathUnits="userSpaceOnUse"><path
         id="path18"
         d="M 0,551.986 H 530.973 V 0 H 0 Z"
         inkscape:connector-curvature="0" /></clipPath><meshgradient
       inkscape:collect="always"
       id="meshgradient1287"
       gradientUnits="userSpaceOnUse"
       x="410.9968"
       y="273.40335"><meshrow
         id="meshrow1289"><meshpatch
           id="meshpatch1291"><stop
             path="c 0,124.863  -69.204,226.085  -154.571,226.085"
             style="stop-color:#ffffff;stop-opacity:1"
             id="stop1293" /><stop
             path="l 0,-226.085"
             style="stop-color:#000000;stop-opacity:1"
             id="stop1295" /><stop
             path="l 0,0"
             style="stop-color:#ffffff;stop-opacity:1"
             id="stop1297" /><stop
             path="l 154.571,0"
             style="stop-color:#000000;stop-opacity:1"
             id="stop1299" /></meshpatch><meshpatch
           id="meshpatch1301"><stop
             path="c -85.3674,0  -154.571,-101.222  -154.571,-226.085"
             id="stop1303" /><stop
             path="l 154.571,0"
             style="stop-color:#ffffff;stop-opacity:1"
             id="stop1305" /><stop
             path="l 0,0"
             style="stop-color:#000000;stop-opacity:1"
             id="stop1307" /></meshpatch><meshpatch
           id="meshpatch1309"><stop
             path="c -1.42109e-14,-124.863  69.204,-226.085  154.571,-226.085"
             id="stop1311" /><stop
             path="l 0,226.085"
             style="stop-color:#000000;stop-opacity:1"
             id="stop1313" /><stop
             path="l 0,0"
             style="stop-color:#ffffff;stop-opacity:1"
             id="stop1315" /></meshpatch><meshpatch
           id="meshpatch1317"><stop
             path="c 85.3674,-2.13163e-14  154.571,101.222  154.571,226.085"
             id="stop1319" /><stop
             path="l -154.571,5.68434e-14"
             style="stop-color:#ffffff;stop-opacity:1"
             id="stop1321" /><stop
             path="l 0,0"
             style="stop-color:#000000;stop-opacity:1"
             id="stop1323" /></meshpatch></meshrow></meshgradient></defs><g
     transform="matrix(1.3333333,0,0,-1.3333333,-181.70637,224.74414)"
     id="g10"
     style="fill:url(#meshgradient1287);fill-opacity:1"><path
       inkscape:connector-curvature="0"
       d="m 152.6083,168.5454 c -8.995,0 -16.288,-7.293 -16.288,-16.29 0,-7.197 4.667,-13.302 11.14,-15.457 0.815,-0.149 1.112,0.354 1.112,0.786 0,0.386 -0.014,1.411 -0.022,2.77 -4.531,-0.984 -5.487,2.184 -5.487,2.184 -0.741,1.882 -1.809,2.383 -1.809,2.383 -1.479,1.01 0.112,0.99 0.112,0.99 1.635,-0.115 2.495,-1.679 2.495,-1.679 1.453,-2.489 3.813,-1.77 4.741,-1.353 0.148,1.052 0.568,1.77 1.034,2.177 -3.617,0.411 -7.42,1.809 -7.42,8.051 0,1.778 0.635,3.232 1.677,4.371 -0.168,0.412 -0.727,2.068 0.159,4.311 0,0 1.368,0.438 4.48,-1.67 1.299,0.362 2.693,0.542 4.078,0.548 1.383,-0.006 2.777,-0.186 4.078,-0.548 3.11,2.108 4.475,1.67 4.475,1.67 0.889,-2.243 0.33,-3.899 0.162,-4.311 1.044,-1.139 1.675,-2.593 1.675,-4.371 0,-6.258 -3.809,-7.635 -7.438,-8.038 0.585,-0.503 1.106,-1.497 1.106,-3.017 0,-2.177 -0.02,-3.934 -0.02,-4.468 0,-0.436 0.293,-0.943 1.12,-0.784 6.468,2.159 11.131,8.26 11.131,15.455 0,8.997 -7.294,16.29 -16.291,16.29"
       style="fill:#ffffff;fill-opacity:1;fill-rule:evenodd;stroke:none"
       id="path198" /><path
       inkscape:connector-curvature="0"
       d="m 350.6088,217.5547 c -33.347,0 -60.388,-27.035 -60.388,-60.388 0,-26.68 17.303,-49.316 41.297,-57.301 3.018,-0.559 4.126,1.31 4.126,2.905 0,1.439 -0.056,6.197 -0.082,11.243 -16.8,-3.653 -20.345,7.125 -20.345,7.125 -2.747,6.979 -6.705,8.836 -6.705,8.836 -5.479,3.748 0.413,3.671 0.413,3.671 6.064,-0.426 9.257,-6.224 9.257,-6.224 5.386,-9.231 14.127,-6.562 17.573,-5.019 0.543,3.902 2.107,6.567 3.834,8.075 -13.413,1.526 -27.513,6.705 -27.513,29.844 0,6.592 2.359,11.979 6.222,16.208 -0.627,1.522 -2.694,7.664 0.586,15.982 0,0 5.071,1.622 16.61,-6.191 4.817,1.338 9.983,2.009 15.115,2.033 5.132,-0.024 10.302,-0.695 15.128,-2.033 11.526,7.813 16.59,6.191 16.59,6.191 3.287,-8.318 1.22,-14.46 0.593,-15.982 3.872,-4.229 6.214,-9.616 6.214,-16.208 0,-23.195 -14.127,-28.301 -27.574,-29.796 2.166,-1.874 4.096,-5.549 4.096,-11.183 0,-8.08 -0.069,-14.583 -0.069,-16.572 0,-1.608 1.086,-3.491 4.147,-2.898 23.982,7.994 41.263,30.622 41.263,57.294 0,33.353 -27.037,60.388 -60.388,60.388"
       style="fill:#ffffff;fill-opacity:1;fill-rule:evenodd;stroke:none"
       id="path202" /></g></svg>